<svg width="308" height="230" viewBox="0 0 308 230" fill="none" xmlns="http://www.w3.org/2000/svg">
<g filter="url(#filter0_d)">
<rect x="5" y="5" width="278" height="200" rx="15" fill="#F5F8FA"/>
<rect x="5" y="5" width="278" height="200" rx="15" fill="url(#paint0_linear)"/>
</g>
<path d="M101.167 36.7969L98.8706 38.9883C97.3081 37.3398 95.5503 36.5156 93.5972 36.5156C91.9487 36.5156 90.5581 37.0781 89.4253 38.2031C88.3003 39.3281 87.7378 40.7148 87.7378 42.3633C87.7378 43.5117 87.9878 44.5312 88.4878 45.4219C88.9878 46.3125 89.6948 47.0117 90.6089 47.5195C91.523 48.0273 92.5386 48.2812 93.6558 48.2812C94.6089 48.2812 95.48 48.1055 96.2691 47.7539C97.0581 47.3945 97.9253 46.7461 98.8706 45.8086L101.097 48.1289C99.8237 49.3711 98.6206 50.2344 97.4878 50.7188C96.355 51.1953 95.062 51.4336 93.6089 51.4336C90.9292 51.4336 88.7339 50.5859 87.023 48.8906C85.3198 47.1875 84.4683 45.0078 84.4683 42.3516C84.4683 40.6328 84.855 39.1055 85.6284 37.7695C86.4097 36.4336 87.523 35.3594 88.9683 34.5469C90.4214 33.7344 91.9839 33.3281 93.6558 33.3281C95.0777 33.3281 96.4448 33.6289 97.7573 34.2305C99.0777 34.832 100.214 35.6875 101.167 36.7969ZM110.407 37.9219C111.61 37.9219 112.739 38.2227 113.794 38.8242C114.856 39.4258 115.684 40.2422 116.278 41.2734C116.872 42.3047 117.169 43.418 117.169 44.6133C117.169 45.8164 116.868 46.9414 116.266 47.9883C115.673 49.0352 114.86 49.8555 113.829 50.4492C112.798 51.0352 111.661 51.3281 110.419 51.3281C108.591 51.3281 107.028 50.6797 105.731 49.3828C104.442 48.0781 103.798 46.4961 103.798 44.6367C103.798 42.6445 104.528 40.9844 105.989 39.6562C107.27 38.5 108.743 37.9219 110.407 37.9219ZM110.454 40.9336C109.462 40.9336 108.634 41.2812 107.97 41.9766C107.313 42.6641 106.985 43.5469 106.985 44.625C106.985 45.7344 107.309 46.6328 107.958 47.3203C108.614 48.0078 109.442 48.3516 110.442 48.3516C111.442 48.3516 112.274 48.0039 112.938 47.3086C113.602 46.6133 113.934 45.7188 113.934 44.625C113.934 43.5312 113.606 42.6445 112.95 41.9648C112.302 41.2773 111.47 40.9336 110.454 40.9336ZM120.49 38.25H123.701V39.7148C124.248 39.1133 124.854 38.6641 125.518 38.3672C126.19 38.0703 126.92 37.9219 127.709 37.9219C128.506 37.9219 129.225 38.1172 129.865 38.5078C130.506 38.8984 131.022 39.4688 131.412 40.2188C131.92 39.4688 132.541 38.8984 133.275 38.5078C134.018 38.1172 134.826 37.9219 135.701 37.9219C136.607 37.9219 137.404 38.1328 138.092 38.5547C138.779 38.9766 139.272 39.5273 139.568 40.207C139.873 40.8867 140.025 41.9922 140.025 43.5234V51H136.803V44.5312C136.803 43.0859 136.623 42.1094 136.264 41.6016C135.904 41.0859 135.365 40.8281 134.647 40.8281C134.1 40.8281 133.607 40.9844 133.17 41.2969C132.74 41.6094 132.42 42.043 132.209 42.5977C131.998 43.1445 131.893 44.0273 131.893 45.2461V51H128.67V44.8242C128.67 43.6836 128.584 42.8594 128.412 42.3516C128.248 41.8359 127.998 41.4531 127.662 41.2031C127.326 40.9531 126.92 40.8281 126.443 40.8281C125.912 40.8281 125.428 40.9883 124.99 41.3086C124.561 41.6211 124.236 42.0625 124.018 42.6328C123.807 43.2031 123.701 44.1016 123.701 45.3281V51H120.49V38.25ZM156.577 45.5508H146.3C146.449 46.457 146.843 47.1797 147.484 47.7188C148.132 48.25 148.956 48.5156 149.956 48.5156C151.152 48.5156 152.179 48.0977 153.038 47.2617L155.734 48.5273C155.062 49.4805 154.257 50.1875 153.32 50.6484C152.382 51.1016 151.269 51.3281 149.98 51.3281C147.98 51.3281 146.351 50.6992 145.093 49.4414C143.835 48.1758 143.206 46.5938 143.206 44.6953C143.206 42.75 143.831 41.1367 145.081 39.8555C146.339 38.5664 147.913 37.9219 149.804 37.9219C151.812 37.9219 153.445 38.5664 154.702 39.8555C155.96 41.1367 156.589 42.832 156.589 44.9414L156.577 45.5508ZM153.367 43.0312C153.156 42.3203 152.738 41.7422 152.113 41.2969C151.495 40.8516 150.777 40.6289 149.956 40.6289C149.066 40.6289 148.285 40.8789 147.613 41.3789C147.191 41.6914 146.8 42.2422 146.441 43.0312H153.367ZM159.149 38.25H161.891V39.8555C162.188 39.2227 162.583 38.7422 163.075 38.4141C163.567 38.0859 164.106 37.9219 164.692 37.9219C165.106 37.9219 165.54 38.0312 165.993 38.25L164.997 41.0039C164.622 40.8164 164.313 40.7227 164.071 40.7227C163.579 40.7227 163.161 41.0273 162.817 41.6367C162.481 42.2461 162.313 43.4414 162.313 45.2227L162.325 45.8438V51H159.149V38.25ZM180.787 40.8281L178.127 42.293C177.627 41.7695 177.131 41.4062 176.639 41.2031C176.154 41 175.584 40.8984 174.928 40.8984C173.732 40.8984 172.764 41.2578 172.021 41.9766C171.287 42.6875 170.92 43.6016 170.92 44.7188C170.92 45.8047 171.275 46.6914 171.986 47.3789C172.697 48.0664 173.631 48.4102 174.787 48.4102C176.217 48.4102 177.33 47.9219 178.127 46.9453L180.646 48.668C179.279 50.4414 177.35 51.3281 174.857 51.3281C172.615 51.3281 170.857 50.6641 169.584 49.3359C168.318 48.0078 167.685 46.4531 167.685 44.6719C167.685 43.4375 167.994 42.3008 168.611 41.2617C169.228 40.2227 170.088 39.4062 171.189 38.8125C172.299 38.2188 173.537 37.9219 174.904 37.9219C176.17 37.9219 177.307 38.1758 178.314 38.6836C179.322 39.1836 180.146 39.8984 180.787 40.8281ZM185.655 33C186.218 33 186.698 33.2031 187.097 33.6094C187.503 34.0156 187.706 34.5078 187.706 35.0859C187.706 35.6562 187.507 36.1445 187.109 36.5508C186.71 36.9492 186.234 37.1484 185.679 37.1484C185.109 37.1484 184.62 36.9453 184.214 36.5391C183.816 36.125 183.616 35.625 183.616 35.0391C183.616 34.4766 183.816 33.9961 184.214 33.5977C184.613 33.1992 185.093 33 185.655 33ZM184.05 38.25H187.261V51H184.05V38.25ZM196.875 37.9219C198.079 37.9219 199.208 38.2227 200.262 38.8242C201.325 39.4258 202.153 40.2422 202.747 41.2734C203.34 42.3047 203.637 43.418 203.637 44.6133C203.637 45.8164 203.336 46.9414 202.735 47.9883C202.141 49.0352 201.329 49.8555 200.297 50.4492C199.266 51.0352 198.129 51.3281 196.887 51.3281C195.059 51.3281 193.497 50.6797 192.2 49.3828C190.911 48.0781 190.266 46.4961 190.266 44.6367C190.266 42.6445 190.997 40.9844 192.458 39.6562C193.739 38.5 195.211 37.9219 196.875 37.9219ZM196.922 40.9336C195.93 40.9336 195.102 41.2812 194.438 41.9766C193.782 42.6641 193.454 43.5469 193.454 44.625C193.454 45.7344 193.778 46.6328 194.426 47.3203C195.083 48.0078 195.911 48.3516 196.911 48.3516C197.911 48.3516 198.743 48.0039 199.407 47.3086C200.071 46.6133 200.403 45.7188 200.403 44.625C200.403 43.5312 200.075 42.6445 199.418 41.9648C198.77 41.2773 197.938 40.9336 196.922 40.9336ZM113.064 60.7617H116.345V74.8711H121.126V78H113.064V60.7617ZM129.991 64.9219C131.194 64.9219 132.323 65.2227 133.378 65.8242C134.44 66.4258 135.268 67.2422 135.862 68.2734C136.456 69.3047 136.753 70.418 136.753 71.6133C136.753 72.8164 136.452 73.9414 135.85 74.9883C135.257 76.0352 134.444 76.8555 133.413 77.4492C132.382 78.0352 131.245 78.3281 130.003 78.3281C128.175 78.3281 126.612 77.6797 125.315 76.3828C124.026 75.0781 123.382 73.4961 123.382 71.6367C123.382 69.6445 124.112 67.9844 125.573 66.6562C126.854 65.5 128.327 64.9219 129.991 64.9219ZM130.038 67.9336C129.046 67.9336 128.218 68.2812 127.553 68.9766C126.897 69.6641 126.569 70.5469 126.569 71.625C126.569 72.7344 126.893 73.6328 127.542 74.3203C128.198 75.0078 129.026 75.3516 130.026 75.3516C131.026 75.3516 131.858 75.0039 132.522 74.3086C133.186 73.6133 133.518 72.7188 133.518 71.625C133.518 70.5312 133.19 69.6445 132.534 68.9648C131.885 68.2773 131.053 67.9336 130.038 67.9336ZM152.578 67.8281L149.918 69.293C149.418 68.7695 148.922 68.4062 148.43 68.2031C147.945 68 147.375 67.8984 146.719 67.8984C145.523 67.8984 144.555 68.2578 143.812 68.9766C143.078 69.6875 142.711 70.6016 142.711 71.7188C142.711 72.8047 143.066 73.6914 143.777 74.3789C144.488 75.0664 145.422 75.4102 146.578 75.4102C148.008 75.4102 149.121 74.9219 149.918 73.9453L152.438 75.668C151.07 77.4414 149.141 78.3281 146.648 78.3281C144.406 78.3281 142.648 77.6641 141.375 76.3359C140.109 75.0078 139.477 73.4531 139.477 71.6719C139.477 70.4375 139.785 69.3008 140.402 68.2617C141.02 67.2227 141.879 66.4062 142.98 65.8125C144.09 65.2188 145.328 64.9219 146.695 64.9219C147.961 64.9219 149.098 65.1758 150.105 65.6836C151.113 66.1836 151.938 66.8984 152.578 67.8281ZM165.615 65.25H168.802V78H165.615V76.6523C164.99 77.2461 164.361 77.6758 163.728 77.9414C163.103 78.1992 162.423 78.3281 161.689 78.3281C160.04 78.3281 158.615 77.6914 157.411 76.418C156.208 75.1367 155.607 73.5469 155.607 71.6484C155.607 69.6797 156.189 68.0664 157.353 66.8086C158.517 65.5508 159.931 64.9219 161.595 64.9219C162.361 64.9219 163.079 65.0664 163.751 65.3555C164.423 65.6445 165.044 66.0781 165.615 66.6562V65.25ZM162.251 67.875C161.259 67.875 160.435 68.2266 159.779 68.9297C159.122 69.625 158.794 70.5195 158.794 71.6133C158.794 72.7148 159.126 73.6211 159.79 74.332C160.462 75.043 161.286 75.3984 162.263 75.3984C163.271 75.3984 164.107 75.0508 164.771 74.3555C165.435 73.6523 165.767 72.7344 165.767 71.6016C165.767 70.4922 165.435 69.5938 164.771 68.9062C164.107 68.2188 163.267 67.875 162.251 67.875ZM172.417 60.3281H175.616V78H172.417V60.3281Z" fill="#444242"/>
<path d="M106.286 110H120L129.189 155.909C129.502 157.487 130.361 158.905 131.614 159.914C132.868 160.923 134.437 161.459 136.046 161.429H169.371C170.98 161.459 172.549 160.923 173.803 159.914C175.056 158.905 175.915 157.487 176.229 155.909L181.714 127.143H123.429M137.143 178.571C137.143 180.465 135.608 182 133.714 182C131.821 182 130.286 180.465 130.286 178.571C130.286 176.678 131.821 175.143 133.714 175.143C135.608 175.143 137.143 176.678 137.143 178.571ZM174.857 178.571C174.857 180.465 173.322 182 171.429 182C169.535 182 168 180.465 168 178.571C168 176.678 169.535 175.143 171.429 175.143C173.322 175.143 174.857 176.678 174.857 178.571Z" stroke="#3497DB" stroke-width="3" stroke-linecap="round" stroke-linejoin="round"/>
<defs>
<filter id="filter0_d" x="0" y="0" width="308" height="230" filterUnits="userSpaceOnUse" color-interpolation-filters="sRGB">
<feFlood flood-opacity="0" result="BackgroundImageFix"/>
<feColorMatrix in="SourceAlpha" type="matrix" values="0 0 0 0 0 0 0 0 0 0 0 0 0 0 0 0 0 0 127 0"/>
<feOffset dx="10" dy="10"/>
<feGaussianBlur stdDeviation="7.5"/>
<feColorMatrix type="matrix" values="0 0 0 0 0 0 0 0 0 0 0 0 0 0 0 0 0 0 0.2 0"/>
<feBlend mode="multiply" in2="BackgroundImageFix" result="effect1_dropShadow"/>
<feBlend mode="normal" in="SourceGraphic" in2="effect1_dropShadow" result="shape"/>
</filter>
<linearGradient id="paint0_linear" x1="144" y1="5" x2="144" y2="205" gradientUnits="userSpaceOnUse">
<stop stop-color="white"/>
<stop offset="1" stop-color="white" stop-opacity="0"/>
</linearGradient>
</defs>
</svg>
