<svg xmlns="http://www.w3.org/2000/svg" xmlns:xlink="http://www.w3.org/1999/xlink" width="53" height="54" viewBox="0 0 53 54">
    <defs>
        <linearGradient id="prefix__a" x1="49.995%" x2="49.995%" y1="-.139%" y2="100%">
            <stop offset="0%" stop-color="#F06"/>
            <stop offset="12%" stop-color="#F70267"/>
            <stop offset="30%" stop-color="#E20869"/>
            <stop offset="52%" stop-color="#C0126D"/>
            <stop offset="77%" stop-color="#902073"/>
            <stop offset="100%" stop-color="#5D2F79"/>
        </linearGradient>
        <path id="prefix__b" d="M0 25.23L43.611 25.23 43.611 0 0 0z"/>
    </defs>
    <g fill="none" fill-rule="evenodd" transform="translate(.111)">
        <rect width="52.409" height="53.79" fill="url(#prefix__a)" fill-rule="nonzero" rx="26.205"/>
        <g transform="translate(4.721 15.069)">
            <path fill="#FFF" d="M6.798 9.097c0-1.692-1.125-2.765-2.567-2.765-1.3 0-2.583 1.073-2.583 2.765 0 1.707 1.284 2.765 2.583 2.765 1.442 0 2.567-1.058 2.567-2.765m1.601 0c0 2.553-1.838 4.261-3.899 4.261-1.188 0-2.17-.423-2.852-1.154v6.26H0V5.062h1.648v.927C2.33 5.258 3.312 4.835 4.5 4.835c2.06 0 3.9 1.724 3.9 4.262"/>
            <mask id="prefix__c" fill="#fff">
                <use xlink:href="#prefix__b"/>
            </mask>
            <path fill="#FFF" d="M10.665 13.131h1.648V5.063h-1.648v8.068zm1.87-12.073c0 .601-.444 1.04-1.046 1.04-.618 0-1.062-.439-1.062-1.04 0-.57.444-1.058 1.062-1.058.602 0 1.046.488 1.046 1.058zM21.029 10.105l1.521.407c-.428 1.74-2.012 2.846-3.835 2.846-2.25 0-4.152-1.708-4.152-4.261 0-2.521 1.902-4.261 4.152-4.261 1.775 0 3.344 1.106 3.835 2.83l-1.585.471c-.3-1.187-1.204-1.74-2.25-1.74-1.458 0-2.535 1.106-2.535 2.7 0 1.643 1.077 2.7 2.535 2.7 1.046 0 1.933-.521 2.314-1.692M30.743 9.097c0-1.692-1.284-2.765-2.583-2.765-1.442 0-2.567 1.073-2.567 2.765 0 1.707 1.125 2.765 2.567 2.765 1.3 0 2.583-1.058 2.583-2.765zm1.648 4.034h-1.648v-.927c-.682.731-1.664 1.154-2.853 1.154-2.06 0-3.898-1.708-3.898-4.261 0-2.538 1.838-4.262 3.898-4.262 1.189 0 2.171.423 2.853 1.155v-.927h1.648v8.068zM42.01 9.097c0-1.692-1.125-2.765-2.568-2.765-1.299 0-2.583 1.073-2.583 2.765 0 1.707 1.284 2.765 2.583 2.765 1.443 0 2.568-1.058 2.568-2.765m1.6 0c0 2.553-1.838 4.261-3.898 4.261-1.188 0-2.17-.423-2.853-1.154v6.347h-1.648V5.063h1.648v.927c.682-.732 1.665-1.155 2.853-1.155 2.06 0 3.899 1.724 3.899 4.262M12.488 25.23c-4.318 0-8.367-3.382-9.711-7.591l1.885.002c1.111 3.48 4.256 5.816 7.826 5.816 4.54 0 8.234-3.79 8.234-8.45h1.727c0 5.637-4.469 10.223-9.961 10.223" mask="url(#prefix__c)"/>
        </g>
    </g>
</svg>
